<?xml version="1.0" standalone="no"?>
<!DOCTYPE svg PUBLIC "-//W3C//DTD SVG 20010904//EN"
 "http://www.w3.org/TR/2001/REC-SVG-20010904/DTD/svg10.dtd">
<svg version="1.0" xmlns="http://www.w3.org/2000/svg"
 width="320.000000pt" height="320.000000pt" viewBox="0 0 320.000000 320.000000"
 preserveAspectRatio="xMidYMid meet">
<metadata>
Created by potrace 1.11, written by Peter Selinger 2001-2013
</metadata>
<g transform="translate(0.000000,320.000000) scale(0.100000,-0.100000)"
fill="#000000" stroke="none">
<path d="M1869 3083 c-16 -19 -17 -43 -5 -113 12 -69 15 -138 22 -487 l7 -321
-59 -12 c-58 -11 -78 -14 -139 -25 -16 -3 -40 -7 -51 -9 -12 -2 -37 -7 -55
-10 -19 -3 -43 -7 -54 -10 -11 -2 -54 -9 -95 -16 -41 -6 -86 -14 -100 -16 -14
-2 -45 -7 -70 -10 -24 -3 -47 -7 -50 -9 -3 -2 -33 -6 -67 -10 -61 -6 -63 -6
-64 17 -2 64 -19 298 -24 328 -13 89 -20 128 -47 235 -35 145 -59 201 -87 210
-27 8 -71 -18 -71 -43 0 -9 15 -78 34 -152 48 -194 63 -293 72 -496 l6 -130
-58 -14 c-78 -18 -73 -17 -119 -24 -23 -4 -52 -8 -65 -11 -14 -3 -47 -7 -75
-10 l-50 -6 70 34 c87 43 130 85 164 156 23 50 25 68 25 171 0 128 -7 149 -73
230 -21 25 -52 68 -71 95 -75 111 -125 140 -235 139 -68 -1 -90 -6 -148 -33
-81 -39 -166 -118 -195 -182 -11 -24 -25 -69 -30 -99 -11 -57 -9 -192 3 -245
26 -119 147 -235 264 -251 23 -3 50 -7 59 -9 9 -2 41 -4 70 -4 l52 -1 -32 -29
c-29 -26 -31 -31 -20 -55 6 -15 21 -30 33 -34 26 -10 145 2 279 29 58 11 115
23 127 25 24 5 36 -8 39 -46 5 -43 16 -134 19 -151 2 -9 6 -34 9 -55 4 -22 8
-46 11 -54 5 -17 12 -56 21 -110 3 -19 17 -84 30 -144 14 -60 24 -115 22 -123
-2 -10 -44 -27 -113 -48 -357 -105 -434 -126 -488 -132 -74 -8 -113 -36 -104
-76 5 -18 17 -29 42 -37 31 -10 54 -9 135 5 30 5 230 62 350 100 47 14 111 32
142 39 60 15 64 13 73 -34 1 -3 5 -27 10 -55 4 -27 10 -57 11 -65 2 -8 6 -35
9 -60 4 -25 8 -52 10 -60 12 -48 19 -204 17 -413 l-2 -238 24 -24 c26 -25 55
-25 78 2 9 11 12 88 12 296 0 249 -3 329 -18 427 -12 82 -19 122 -30 177 -7
34 -10 67 -6 73 4 7 29 16 56 22 50 10 59 11 129 23 48 7 137 22 185 30 19 4
50 8 69 11 19 2 46 6 60 8 14 3 51 7 81 11 30 4 68 9 83 11 73 12 156 12 165
1 22 -27 83 -247 101 -362 25 -162 28 -216 31 -485 2 -188 13 -232 60 -249 24
-8 34 -6 52 8 20 17 21 22 12 83 -11 72 -11 294 -1 304 4 4 17 3 29 -3 13 -6
31 -7 40 -4 9 3 70 59 136 124 66 64 125 117 130 117 5 0 43 -39 84 -87 115
-136 237 -206 311 -180 63 22 51 89 -19 106 -51 13 -86 33 -137 78 -39 35
-147 169 -147 184 0 19 123 131 191 174 73 48 87 76 53 109 -43 43 -122 5
-261 -127 -44 -41 -67 -56 -77 -50 -8 4 -47 40 -88 78 -102 99 -131 119 -160
112 -14 -4 -29 -17 -35 -30 -16 -34 5 -64 110 -161 48 -44 89 -86 91 -93 3 -7
-53 -72 -123 -144 -146 -149 -134 -149 -147 -4 -3 39 -8 79 -10 90 -2 11 -7
43 -10 70 -3 28 -9 64 -14 80 -5 17 -12 42 -15 58 -11 57 -15 74 -39 147 -13
41 -21 78 -17 81 3 4 51 15 106 24 159 28 415 92 435 110 19 17 20 40 4 69
-17 28 -73 24 -244 -18 -80 -20 -164 -38 -185 -41 -22 -4 -56 -10 -75 -14 -31
-6 -57 -7 -89 -2 -5 0 -11 9 -14 19 -3 9 -17 55 -32 102 -34 110 -32 100 -55
209 -25 118 -36 194 -44 324 -5 72 -7 70 169 108 22 5 63 11 90 15 l50 6 -40
-27 c-58 -40 -91 -81 -133 -164 -36 -72 -37 -78 -36 -180 0 -97 2 -110 28
-156 61 -109 129 -147 266 -148 72 -1 94 3 142 25 72 33 137 93 173 159 36 66
46 173 27 278 -19 103 -42 145 -114 198 -25 18 -45 24 -78 23 -96 -3 -193 0
-187 7 8 7 108 44 202 73 34 11 71 29 83 40 40 37 22 93 -31 92 -12 0 -85 -20
-162 -45 -77 -26 -162 -51 -190 -57 -27 -7 -58 -14 -67 -16 -111 -26 -180 -36
-190 -26 -11 11 -15 103 -5 119 4 6 18 11 31 11 35 0 63 24 161 140 47 56 91
102 96 102 5 0 39 -25 74 -55 36 -30 84 -67 107 -81 99 -63 242 -88 272 -49
38 50 8 88 -76 99 -26 3 -56 10 -65 15 -10 5 -35 17 -56 27 -49 24 -167 131
-167 151 0 21 38 70 137 177 46 48 83 95 83 105 -1 27 -27 54 -54 54 -34 0
-73 -31 -148 -114 -114 -128 -107 -122 -124 -108 -9 7 -36 41 -61 76 -60 85
-87 105 -118 91 -44 -20 -43 -64 2 -128 15 -22 46 -65 67 -95 34 -47 38 -58
28 -79 -13 -29 -183 -229 -189 -222 -3 2 -6 58 -8 123 -5 152 -15 357 -19 380
-2 10 -6 39 -10 65 -12 82 -70 125 -107 81z m-1345 -443 c14 -5 26 -17 26 -25
0 -9 36 -51 81 -93 99 -94 116 -125 117 -215 1 -121 -28 -175 -113 -219 -48
-25 -175 -32 -246 -14 -104 27 -160 106 -164 233 -5 143 27 226 110 283 79 55
137 70 189 50z m1370 -619 c3 -9 8 -56 11 -106 3 -49 8 -103 11 -120 16 -90
44 -226 55 -265 7 -25 13 -47 14 -50 1 -3 11 -38 24 -78 22 -74 22 -84 -3 -88
-20 -3 -127 -15 -176 -20 -25 -2 -60 -7 -77 -10 -18 -2 -33 -3 -33 0 0 3 23
29 50 58 28 29 63 78 78 108 26 52 27 62 27 200 0 166 -6 186 -73 237 -45 34
-86 48 -186 64 -57 10 -99 28 -66 30 8 0 24 2 35 5 46 9 281 50 292 50 7 1 15
-6 17 -15z m662 -37 c74 -35 89 -64 89 -174 0 -112 -23 -157 -113 -219 -25
-18 -52 -25 -103 -28 -140 -9 -202 54 -198 200 2 86 28 149 83 205 55 56 145
62 242 16z m-1210 -57 c-117 -85 -166 -196 -161 -369 2 -77 7 -106 27 -150 34
-73 83 -127 141 -154 33 -15 44 -24 36 -30 -23 -14 -147 -31 -162 -23 -8 5
-18 26 -22 46 -5 21 -9 43 -11 48 -1 6 -5 26 -9 45 -3 19 -19 100 -36 180 -35
172 -36 178 -44 255 -4 33 -8 71 -10 85 -6 34 6 50 40 56 16 3 31 7 35 9 3 2
30 6 60 10 30 3 71 10 90 14 48 11 58 2 26 -22z m253 -93 c74 -10 115 -29 138
-63 20 -30 22 -44 20 -140 -3 -118 -11 -141 -71 -203 -41 -42 -86 -69 -125
-74 -84 -11 -106 -11 -139 -2 -77 21 -123 97 -126 211 -4 127 35 215 119 269
31 19 50 20 184 2z"/>
<path d="M771 1811 c-11 -11 -45 -62 -76 -115 -30 -52 -60 -98 -66 -101 -5 -4
-49 16 -97 42 -178 100 -205 109 -236 77 -23 -23 -20 -60 8 -81 12 -10 62 -38
110 -63 48 -25 101 -56 117 -70 l31 -25 -100 -160 c-134 -217 -146 -253 -85
-276 35 -13 62 18 173 195 57 91 110 168 117 171 8 2 37 -8 66 -25 123 -69
274 -95 305 -53 33 46 -1 82 -94 97 -43 8 -102 30 -149 56 -68 38 -67 37 -34
93 54 93 99 186 99 205 0 23 -30 52 -53 52 -9 0 -26 -9 -36 -19z"/>
</g>
</svg>
